<svg width="98" height="61" viewBox="0 0 98 61" fill="none" xmlns="http://www.w3.org/2000/svg">
<path d="M2.928 44.528V17.504H7.152V13.376H13.248V17.504H17.52V25.712H19.872V17.504H24.144V13.376H30.288V17.504H34.464V44.528H28.416V19.952H26.016V28.112H21.744V40.448H15.648V28.112H11.376V19.952H9.024V44.528H2.928ZM39.8655 44.528V21.584H44.0895V17.504H48.3135V13.376H54.4575V17.504H58.6815V21.584H62.9535V44.528H56.8095V36.32H45.9615V44.528H39.8655ZM45.9615 29.744H56.8095V24.032H52.5855V19.952H50.1855V24.032H45.9615V29.744Z" fill="white"/>
<path d="M71 7V41.6675H74.0006V39.0006H76.999V36.3338H79.9996V33.6669H83.0002V39.0006H86.0008V44.3325H89.0014V49.6662H92.002V55H98V49.6662H95.0026V44.3325H92.002V39.0006H89.0014V31H98V28.3331H95.0026V25.6662H92.002V23.0013H89.0014V20.3344H86.0008V17.6675H83.0002V15.0006H79.9986V12.3338H76.998V9.66688H74.0006V7H71Z" fill="white"/>
</svg>
