<svg width="220" height="384" viewBox="0 0 220 384" fill="none" xmlns="http://www.w3.org/2000/svg">
<path d="M186.941 1.61194C181.335 3.99741 171.589 10.6994 165.592 16.3412C156.304 25.088 145.124 37.6969 138.508 46.9359C108.36 88.8898 88.1199 146.747 81.9925 208.428C81.0799 217.705 81.0799 217.781 80.8517 221.87C80.7214 223.839 80.5584 225.884 80.4932 226.414C80.428 226.944 80.2651 230.693 80.1673 234.744C80.0695 238.796 79.9065 242.469 79.8739 242.885C79.8088 243.302 79.7436 244.93 79.7436 246.482L79.711 249.322L74.7243 253.146C72.0191 255.267 67.5865 258.675 64.8814 260.681C62.2088 262.726 52.431 270.223 43.2073 277.342C20.2947 295.025 14.2325 299.455 5.39987 304.983C0.673947 307.936 0.185059 308.391 0.185059 309.602C0.185059 310.625 1.26061 311.988 2.07543 311.988C3.05321 311.988 17.4265 301.424 33.9184 288.55C50.6384 275.524 62.4695 266.399 68.271 262.007C70.3243 260.454 73.7139 257.879 75.7673 256.289C77.8532 254.699 79.5806 253.411 79.6132 253.449C79.6458 253.487 79.7436 256.289 79.8414 259.735C80.2325 271.624 80.5258 277.19 81.308 286.467C81.8621 292.601 81.8621 293.131 81.308 296.88C79.2221 311.003 77.9836 323.234 75.7999 351.178C75.2458 358.258 74.5939 365.566 74.3984 367.46L74.0073 370.867L72.8014 366.702C71.1391 361.098 69.6399 354.926 67.4888 344.817C65.631 336.221 65.0769 333.419 62.5999 319.977C60.9376 311.117 60.6443 310.473 58.3302 310.473C57.3525 310.473 56.668 310.738 56.0814 311.306C55.3317 312.102 55.1688 312.707 54.6147 317.1C53.9628 322.211 53.1806 330.996 52.0073 345.877C51.6162 350.648 51.2576 354.623 51.2251 354.661C51.1599 354.737 50.9317 354.055 50.7036 353.185C50.2147 351.178 49.2043 348.868 48.7154 348.489C48.5199 348.376 47.8354 348.111 47.1836 347.921C45.3584 347.467 44.1199 348.262 43.2725 350.496C42.7184 352.049 41.8384 357.539 41.5125 361.78C41.4147 362.802 41.2843 362.954 40.0458 363.143C39.231 363.257 38.3184 363.711 37.7969 364.279C36.8191 365.339 34.831 369.769 33.7228 373.404L32.9732 375.903L30.8221 373.631C27.9539 370.564 26.5199 369.542 24.5969 369.277C23.228 369.088 22.8043 369.201 21.7288 370.034C20.1317 371.284 19.0888 373.707 19.0562 376.358C18.991 378.137 19.1214 378.516 19.871 379.273C20.8814 380.296 21.6962 380.371 22.9673 379.576C24.0102 378.97 24.3036 378.327 24.3036 376.699C24.3036 374.805 25.2162 375.411 28.7688 379.576C31.7673 383.135 32.2562 383.552 33.2991 383.552C34.7006 383.552 36.1999 382.681 36.7214 381.621C36.9169 381.167 37.4384 379.349 37.8947 377.532C38.8073 373.821 39.9154 370.678 40.2739 370.678C40.4043 370.678 40.6325 371.284 40.7302 372.003C41.1214 374.389 43.6962 375.676 45.391 374.275C46.3688 373.48 46.8902 371.435 46.4665 370.148C45.8799 368.293 46.1406 357.425 46.7925 357.425C47.151 357.425 48.8132 363.825 49.2369 366.854C49.7258 370.299 52.6265 371.89 54.4517 369.769C55.2339 368.823 55.2665 368.785 55.1362 362.84C54.9406 352.389 55.9184 337.016 57.4176 326.376C58.2325 320.697 58.3628 320.015 58.6562 320.356C59.1776 320.924 65.1095 347.24 70.6176 373.026C72.1495 380.258 72.7688 381.28 75.2458 380.75C77.4295 380.258 77.6576 379.576 77.8858 372.571C78.5702 352.427 80.6236 324.635 82.7421 306.876L83.1332 303.468L83.8828 308.201C85.6102 319.144 89.1628 333.192 92.0636 340.689C98.028 355.949 105.524 364.203 116.508 367.535C120.68 368.785 127.687 369.126 132.185 368.255C150.698 364.733 167.157 349.209 179.966 323.158C181.204 320.659 184.235 313.957 186.745 308.315C189.45 302.105 191.764 297.334 192.514 296.312L193.818 294.608L195.187 295.668C197.761 297.675 200.043 298.092 202.064 296.994C203.139 296.35 203.172 296.388 204.443 297.562C205.877 298.887 207.604 299.606 208.615 299.265C209.853 298.849 211.548 297.259 212.363 295.744C213.015 294.494 213.275 294.267 213.895 294.419C215.003 294.76 216.502 293.889 217.219 292.526C217.578 291.806 217.969 289.989 218.197 287.792C218.36 285.861 218.751 283.855 219.044 283.362C219.305 282.87 219.533 281.81 219.533 280.977C219.533 279.765 219.338 279.311 218.523 278.516C216.209 276.244 213.341 278.213 213.341 281.999C213.341 284.877 213.015 285.824 211.809 286.505C211.124 286.884 210.179 287.982 209.364 289.421C208.615 290.708 207.963 291.806 207.898 291.92C207.832 291.995 207.246 291.39 206.627 290.519C204.736 287.868 202.52 287.527 200.76 289.686C199.684 291.011 199.293 291.049 198.478 289.989C197.533 288.777 195.578 287.755 194.241 287.755C191.829 287.755 189.418 289.989 187.723 293.851C187.267 294.949 185.572 299.568 183.942 304.188C177.684 322.174 171.557 333.798 162.985 344.135C157.053 351.291 151.35 356.252 145.092 359.735C138.964 363.105 134.271 364.544 128.274 364.885C114.324 365.68 103.406 358.41 96.3658 343.605C91.9658 334.442 88.7717 322.855 86.3925 307.823C84.3065 294.381 84.3065 294.722 85.5451 287.452C86.6858 280.901 89.2932 268.444 91.1184 260.871C93.4977 251.102 96.6591 239.515 97.0502 239.25C98.191 238.493 115.595 223.158 122.57 216.759C136.227 204.225 145.418 195.592 148.644 192.298C149.198 191.768 151.447 189.458 153.696 187.186C155.945 184.952 158.422 182.377 159.237 181.507C160.052 180.674 163.05 177.455 165.918 174.388L171.133 168.822L171.361 171.586C172.73 188.663 173.024 196.88 172.469 202.105C172.111 205.096 172.6 206.611 174.164 207.368C175.044 207.785 175.501 207.822 176.381 207.482C178.597 206.611 178.923 203.998 177.456 199.151C176.576 196.198 175.989 191.692 175.044 180.409C174.588 174.994 174.132 169.806 174.034 168.936C173.871 167.156 173.871 167.156 175.533 168.519C179.216 171.435 187.071 170.677 193.85 166.739C203.628 161.06 211.157 149.625 211.092 140.613C211.092 137.735 210.472 136.183 208.778 134.895C205.942 132.661 201.053 134.554 194.339 140.424C191.862 142.582 182.704 151.669 179.118 155.494C177.945 156.743 176.576 158.182 176.022 158.712L175.077 159.697L174.49 158.182C173.317 155.115 172.893 152.389 172.73 146.33C172.632 142.998 172.502 139.893 172.404 139.401C172.209 138.303 170.351 137.243 169.21 137.584C168.721 137.735 168.037 138.189 167.646 138.644C167.059 139.325 166.994 139.704 167.189 142.127C167.744 148.943 168.852 155.948 170.188 160.454C171.198 164.013 171.264 163.937 164.843 170.791C161.649 174.199 157.672 178.44 156.01 180.219C154.315 181.999 152.784 183.627 152.588 183.816C145.548 191.427 118.855 216.493 107.904 225.846C107.187 226.452 106.535 227.058 106.437 227.171C106.078 227.664 98.4843 233.987 98.3865 233.873C98.191 233.608 104.547 211.874 110.935 191.011C127.003 138.757 145.189 95.6297 178.369 31.222C184.985 18.3481 187.625 13.5771 190.493 9.26059C192.221 6.68579 192.481 6.04208 192.481 4.67896C192.481 2.71002 191.504 1.19543 190.037 0.930389C189.45 0.816772 188.244 1.08185 186.941 1.61194ZM185.311 8.16251C185.311 8.27609 183.649 12.1383 181.628 16.7578C178.075 24.8608 174.425 32.5094 164.778 52.0476C153.468 74.9556 145.255 92.752 137.432 111.116C131.533 124.975 130.555 127.36 125.927 139.515C121.723 150.533 115.204 169.276 111.13 182.112C106.6 196.425 99.7554 219.22 96.4636 230.958L94.7362 237.205L91.2162 240.083C89.2932 241.673 86.4576 243.945 84.9584 245.157L82.2206 247.391L82.4488 238.569C82.5791 233.722 82.7421 229.405 82.8073 228.951C82.8725 228.497 83.0028 226.414 83.1332 224.331C83.3939 219.409 83.7525 215.282 84.7628 205.21C86.9465 184.081 92.1613 158.144 98.7125 136.107C108.751 102.332 124.461 69.9196 142.289 46.1786C146.298 40.8397 154.739 30.957 158.748 26.9434C160.541 25.1259 162.268 23.3462 162.627 23.0054C163.735 21.8316 170.449 16.3412 172.698 14.7509C175.566 12.7441 180.259 10.0179 182.834 8.88193C184.952 7.89746 185.311 7.82172 185.311 8.16251ZM206.007 142.582C206.007 144.513 205.779 145.384 204.638 148.072C201.575 155.266 195.447 161.287 188.375 164.013C185.213 165.225 180.52 165.225 178.564 164.013C176.772 162.915 176.674 162.65 177.717 161.666C178.238 161.211 179.216 160.227 179.933 159.432C182.475 156.705 187.951 151.442 191.08 148.678C197.598 142.96 202.389 140.045 204.867 140.196L206.007 140.272V142.582ZM92.031 247.126C88.6739 259.735 83.948 280.22 83.948 282.226C83.948 282.567 83.8176 282.832 83.6547 282.832C83.4917 282.832 83.2636 280.825 83.1332 278.364C83.0028 275.941 82.8399 273.518 82.8073 272.987C82.7421 272.457 82.5791 267.346 82.4488 261.628L82.2532 251.215L84.8606 249.208C86.2947 248.073 88.7717 246.066 90.3362 244.74C91.9332 243.415 93.2695 242.317 93.2695 242.317C93.3021 242.317 92.748 244.475 92.031 247.126Z" fill="#CECECE"/>
</svg>
